<svg width="13" height="22" viewBox="0 0 13 22" fill="none" xmlns="http://www.w3.org/2000/svg">
<path d="M12.8333 1.54336C12.8333 1.38865 12.7719 1.24027 12.6625 1.13088C12.5531 1.02148 12.4047 0.960023 12.25 0.960023H9.33333C7.86464 0.886863 6.4267 1.39798 5.33368 2.3817C4.24065 3.36542 3.58142 4.74177 3.5 6.21002V9.36002H0.583333C0.428624 9.36002 0.280251 9.42148 0.170854 9.53088C0.0614583 9.64028 0 9.78865 0 9.94336V12.9767C0 13.1314 0.0614583 13.2798 0.170854 13.3892C0.280251 13.4986 0.428624 13.56 0.583333 13.56H3.5V21.3767C3.5 21.5314 3.56146 21.6798 3.67085 21.7892C3.78025 21.8986 3.92862 21.96 4.08333 21.96H7.58333C7.73804 21.96 7.88642 21.8986 7.99581 21.7892C8.10521 21.6798 8.16667 21.5314 8.16667 21.3767V13.56H11.2233C11.3531 13.5619 11.4797 13.5205 11.5832 13.4423C11.6868 13.3641 11.7613 13.2536 11.795 13.1284L12.635 10.095C12.6582 10.0088 12.6613 9.91847 12.6441 9.83088C12.6269 9.74329 12.5898 9.66082 12.5357 9.58982C12.4816 9.51882 12.412 9.46118 12.3321 9.42134C12.2522 9.3815 12.1643 9.36052 12.075 9.36002H8.16667V6.21002C8.19569 5.92125 8.3313 5.65365 8.54703 5.4595C8.76276 5.26534 9.04311 5.15857 9.33333 5.16002H12.25C12.4047 5.16002 12.5531 5.09857 12.6625 4.98917C12.7719 4.87977 12.8333 4.7314 12.8333 4.57669V1.54336Z" fill="white"/>
</svg>
