<svg width="29" height="29" viewBox="0 0 29 29" fill="none" xmlns="http://www.w3.org/2000/svg">
<path d="M27.0369 8.79036C26.1386 9.1987 25.1702 9.46703 24.1669 9.59536C25.1936 8.97703 25.9869 7.99703 26.3602 6.8187C25.3919 7.40203 24.3186 7.81036 23.1869 8.0437C22.2652 7.04036 20.9702 6.45703 19.5002 6.45703C16.7586 6.45703 14.5186 8.69703 14.5186 11.462C14.5186 11.8587 14.5652 12.2437 14.6469 12.6054C10.4936 12.3954 6.79525 10.4004 4.33358 7.3787C3.90192 8.1137 3.65692 8.97703 3.65692 9.88703C3.65692 11.6254 4.53192 13.1654 5.88525 14.0404C5.05692 14.0404 4.28692 13.807 3.61025 13.457V13.492C3.61025 15.9187 5.33692 17.9487 7.62358 18.4037C6.88943 18.6046 6.11869 18.6326 5.37192 18.4854C5.68879 19.4799 6.30938 20.3502 7.14643 20.9738C7.98349 21.5974 8.99494 21.943 10.0386 21.962C8.26948 23.3625 6.07658 24.1196 3.82025 24.1087C3.42358 24.1087 3.02692 24.0854 2.63025 24.0387C4.84692 25.462 7.48358 26.2904 10.3069 26.2904C19.5002 26.2904 24.5519 18.6604 24.5519 12.0454C24.5519 11.8237 24.5519 11.6137 24.5402 11.392C25.5202 10.692 26.3602 9.80536 27.0369 8.79036Z" fill="white"/>
</svg>
