<svg width="29" height="29" viewBox="0 0 29 29" fill="none" xmlns="http://www.w3.org/2000/svg">
<path d="M21.7164 14.8404C17.983 12.6237 11.7414 12.3904 8.18305 13.4987C7.59972 13.6737 7.01638 13.3237 6.84138 12.7987C6.66638 12.2154 7.01638 11.632 7.54138 11.457C11.683 10.232 18.508 10.4654 22.8247 13.032C23.3497 13.3237 23.5247 14.0237 23.2331 14.5487C22.9414 14.957 22.2414 15.132 21.7164 14.8404ZM21.5997 18.107C21.308 18.5154 20.7831 18.6904 20.3747 18.3987C17.2247 16.4737 12.4414 15.8904 8.76638 17.057C8.29972 17.1737 7.77472 16.9404 7.65805 16.4737C7.54138 16.007 7.77472 15.482 8.24138 15.3654C12.4997 14.082 17.7497 14.7237 21.3664 16.9404C21.7164 17.1154 21.8914 17.6987 21.5997 18.107ZM20.1997 21.3154C19.9664 21.6654 19.5581 21.782 19.208 21.5487C16.4664 19.857 13.0247 19.507 8.94138 20.4404C8.53305 20.557 8.18305 20.2654 8.06638 19.9154C7.94972 19.507 8.24138 19.157 8.59138 19.0404C13.0247 18.0487 16.8747 18.457 19.9081 20.3237C20.3164 20.4987 20.3747 20.9654 20.1997 21.3154ZM14.833 4.45703C13.301 4.45703 11.7839 4.7588 10.3684 5.3451C8.95294 5.93141 7.66682 6.79077 6.58347 7.87412C4.39555 10.062 3.16638 13.0295 3.16638 16.1237C3.16638 19.2179 4.39555 22.1854 6.58347 24.3733C7.66682 25.4566 8.95294 26.316 10.3684 26.9023C11.7839 27.4886 13.301 27.7904 14.833 27.7904C17.9272 27.7904 20.8947 26.5612 23.0826 24.3733C25.2706 22.1854 26.4997 19.2179 26.4997 16.1237C26.4997 14.5916 26.198 13.0745 25.6116 11.6591C25.0253 10.2436 24.166 8.95747 23.0826 7.87412C21.9993 6.79077 20.7132 5.93141 19.2977 5.3451C17.8822 4.7588 16.3651 4.45703 14.833 4.45703Z" fill="white"/>
</svg>
