<svg width="29" height="29" viewBox="0 0 29 29" fill="none" xmlns="http://www.w3.org/2000/svg">
<path d="M12.4997 20.1237L18.5547 16.6237L12.4997 13.1237V20.1237ZM25.9864 10.9887C26.1381 11.537 26.243 12.272 26.313 13.2054C26.3947 14.1387 26.4297 14.9437 26.4297 15.6437L26.4997 16.6237C26.4997 19.1787 26.313 21.057 25.9864 22.2587C25.6947 23.3087 25.018 23.9854 23.9681 24.277C23.4197 24.4287 22.4164 24.5337 20.8764 24.6037C19.3597 24.6854 17.9714 24.7204 16.688 24.7204L14.833 24.7904C9.94472 24.7904 6.89972 24.6037 5.69805 24.277C4.64805 23.9854 3.97138 23.3087 3.67972 22.2587C3.52805 21.7104 3.42305 20.9754 3.35305 20.042C3.27138 19.1087 3.23638 18.3037 3.23638 17.6037L3.16638 16.6237C3.16638 14.0687 3.35305 12.1904 3.67972 10.9887C3.97138 9.9387 4.64805 9.26203 5.69805 8.97036C6.24638 8.8187 7.24972 8.7137 8.78972 8.6437C10.3064 8.56203 11.6947 8.52703 12.978 8.52703L14.833 8.45703C19.7214 8.45703 22.7664 8.6437 23.9681 8.97036C25.018 9.26203 25.6947 9.9387 25.9864 10.9887Z" fill="white"/>
</svg>
