<svg width="29" height="29" viewBox="0 0 29 29" fill="none" xmlns="http://www.w3.org/2000/svg">
<path d="M21.063 8.4937C20.7862 8.4937 20.5155 8.57581 20.2852 8.72964C20.055 8.88347 19.8756 9.10212 19.7696 9.35794C19.6637 9.61376 19.6359 9.89525 19.6899 10.1668C19.744 10.4384 19.8773 10.6879 20.0731 10.8836C20.2689 11.0794 20.5184 11.2128 20.7899 11.2668C21.0615 11.3208 21.343 11.2931 21.5988 11.1871C21.8546 11.0812 22.0733 10.9017 22.2271 10.6715C22.3809 10.4413 22.4631 10.1706 22.4631 9.8937C22.4631 9.5224 22.3155 9.1663 22.053 8.90375C21.7904 8.6412 21.4344 8.4937 21.063 8.4937ZM26.4297 11.317C26.407 10.349 26.2257 9.39134 25.893 8.48203C25.5964 7.70402 25.1347 6.99952 24.5397 6.41703C23.962 5.81903 23.2559 5.36024 22.4747 5.07536C21.5678 4.73255 20.609 4.54711 19.6397 4.52703C18.4031 4.45703 18.0064 4.45703 14.833 4.45703C11.6597 4.45703 11.263 4.45703 10.0264 4.52703C9.05706 4.54711 8.09828 4.73255 7.19138 5.07536C6.41167 5.36312 5.70614 5.82152 5.12638 6.41703C4.52838 6.99474 4.06959 7.70088 3.78472 8.48203C3.4419 9.38893 3.25646 10.3477 3.23638 11.317C3.16638 12.5537 3.16638 12.9504 3.16638 16.1237C3.16638 19.297 3.16638 19.6937 3.23638 20.9304C3.25646 21.8997 3.4419 22.8585 3.78472 23.7654C4.06959 24.5465 4.52838 25.2527 5.12638 25.8304C5.70614 26.4259 6.41167 26.8843 7.19138 27.172C8.09828 27.5148 9.05706 27.7003 10.0264 27.7204C11.263 27.7904 11.6597 27.7904 14.833 27.7904C18.0064 27.7904 18.4031 27.7904 19.6397 27.7204C20.609 27.7003 21.5678 27.5148 22.4747 27.172C23.2559 26.8872 23.962 26.4284 24.5397 25.8304C25.1373 25.25 25.5994 24.5449 25.893 23.7654C26.2257 22.8561 26.407 21.8984 26.4297 20.9304C26.4297 19.6937 26.4997 19.297 26.4997 16.1237C26.4997 12.9504 26.4997 12.5537 26.4297 11.317ZM24.3297 20.7904C24.3212 21.5309 24.1871 22.2647 23.933 22.9604C23.7468 23.4681 23.4476 23.9269 23.058 24.302C22.6796 24.6876 22.2218 24.9862 21.7164 25.177C21.0207 25.4311 20.287 25.5652 19.5464 25.5737C18.3797 25.632 17.948 25.6437 14.8797 25.6437C11.8114 25.6437 11.3797 25.6437 10.213 25.5737C9.44409 25.5881 8.67841 25.4697 7.94972 25.2237C7.46646 25.0231 7.02963 24.7253 6.66638 24.3487C6.27915 23.9739 5.9837 23.5148 5.80305 23.007C5.51821 22.3014 5.36023 21.551 5.33638 20.7904C5.33638 19.6237 5.26638 19.192 5.26638 16.1237C5.26638 13.0554 5.26638 12.6237 5.33638 11.457C5.34161 10.6999 5.47982 9.94963 5.74472 9.24037C5.9501 8.74793 6.26536 8.30897 6.66638 7.95703C7.02083 7.55589 7.45888 7.23731 7.94972 7.0237C8.66086 6.76708 9.41038 6.63296 10.1664 6.62703C11.333 6.62703 11.7647 6.55703 14.833 6.55703C17.9014 6.55703 18.333 6.55703 19.4997 6.62703C20.2403 6.63553 20.974 6.76965 21.6697 7.0237C22.1999 7.22046 22.6757 7.54035 23.058 7.95703C23.4404 8.31541 23.7391 8.75355 23.933 9.24037C24.1923 9.95079 24.3266 10.7008 24.3297 11.457C24.3881 12.6237 24.3997 13.0554 24.3997 16.1237C24.3997 19.192 24.3881 19.6237 24.3297 20.7904ZM14.833 10.1387C13.6498 10.141 12.4938 10.494 11.5111 11.153C10.5285 11.8121 9.76316 12.7476 9.31195 13.8414C8.86075 14.9352 8.74389 16.1382 8.97614 17.2984C9.20839 18.4587 9.77932 19.524 10.6168 20.3598C11.4543 21.1957 12.5207 21.7646 13.6814 21.9945C14.842 22.2245 16.0448 22.1053 17.1378 21.652C18.2307 21.1987 19.1647 20.4315 19.8219 19.4476C20.479 18.4636 20.8297 17.3069 20.8297 16.1237C20.8313 15.3363 20.6771 14.5564 20.3762 13.8288C20.0752 13.1012 19.6334 12.4403 19.0761 11.8841C18.5188 11.3279 17.857 10.8873 17.1288 10.5878C16.4006 10.2882 15.6204 10.1356 14.833 10.1387ZM14.833 20.0087C14.0647 20.0087 13.3135 19.7808 12.6747 19.354C12.0358 18.9271 11.5378 18.3203 11.2438 17.6104C10.9497 16.9005 10.8728 16.1194 11.0227 15.3658C11.1726 14.6122 11.5426 13.9199 12.0859 13.3766C12.6293 12.8333 13.3215 12.4633 14.0751 12.3133C14.8287 12.1634 15.6099 12.2404 16.3198 12.5344C17.0297 12.8285 17.6364 13.3264 18.0633 13.9653C18.4902 14.6042 18.718 15.3553 18.718 16.1237C18.718 16.6339 18.6176 17.1391 18.4223 17.6104C18.2271 18.0818 17.9409 18.5101 17.5802 18.8708C17.2194 19.2316 16.7911 19.5177 16.3198 19.713C15.8484 19.9082 15.3432 20.0087 14.833 20.0087Z" fill="white"/>
</svg>
